<?xml version="1.0" encoding="UTF-8"?>
<svg xmlns="http://www.w3.org/2000/svg" xmlns:xlink="http://www.w3.org/1999/xlink" viewBox="0 0 1349.39 460.51">
  <defs>
    <style>
      .cls-1 {
        fill: none;
        isolation: isolate;
      }

      .cls-2 {
        fill: #fff;
      }

      .cls-3 {
        fill: #7dff00;
      }

      .cls-4 {
        fill: url(#radial-gradient-3);
      }

      .cls-4, .cls-5, .cls-6, .cls-7 {
        mix-blend-mode: screen;
      }

      .cls-5 {
        fill: url(#radial-gradient-4);
      }

      .cls-6 {
        fill: url(#radial-gradient-2);
      }

      .cls-7 {
        fill: url(#radial-gradient);
      }
    </style>
    <radialGradient id="radial-gradient" cx="2028.24" cy="-36794.74" fx="2028.24" fy="-36794.74" r="226.35" gradientTransform="translate(-2391.65 1661.95) rotate(-1.12) scale(1.33 .03) skewX(-.03)" gradientUnits="userSpaceOnUse">
      <stop offset="0" stop-color="#fff"/>
      <stop offset=".14" stop-color="#fff"/>
      <stop offset=".26" stop-color="#c9c9c9" stop-opacity=".79"/>
      <stop offset=".41" stop-color="#8c8c8c" stop-opacity=".55"/>
      <stop offset=".55" stop-color="#5a5a5a" stop-opacity=".35"/>
      <stop offset=".69" stop-color="#333" stop-opacity=".2"/>
      <stop offset=".81" stop-color="#171717" stop-opacity=".09"/>
      <stop offset=".92" stop-color="#060606" stop-opacity=".02"/>
      <stop offset="1" stop-color="#000" stop-opacity="0"/>
    </radialGradient>
    <radialGradient id="radial-gradient-2" cx="2559.52" cy="-45896.26" fx="2559.52" fy="-45896.26" r="226.35" gradientTransform="translate(-2521.68 1513.17) rotate(.76) scale(1.33 .03) skewX(-.03)" xlink:href="#radial-gradient"/>
    <radialGradient id="radial-gradient-3" cx="2310.97" cy="-37153.83" fx="2310.97" fy="-37153.83" r="288.29" gradientTransform="translate(-3232.78 1630.13) rotate(-.4) scale(1.64 .03) skewX(-.03)" gradientUnits="userSpaceOnUse">
      <stop offset="0" stop-color="#fff"/>
      <stop offset=".01" stop-color="#ecfaff"/>
      <stop offset=".05" stop-color="#baf0ff"/>
      <stop offset=".09" stop-color="#6bdfff"/>
      <stop offset=".14" stop-color="#03c9ff"/>
      <stop offset=".26" stop-color="#02acdb" stop-opacity=".86"/>
      <stop offset=".77" stop-color="#00313e" stop-opacity=".25"/>
      <stop offset="1" stop-color="#000" stop-opacity="0"/>
    </radialGradient>
    <radialGradient id="radial-gradient-4" cx="2535.89" cy="-45172.74" fx="2535.89" fy="-45172.74" r="288.29" gradientTransform="translate(-3332.59 1498.18) rotate(.81) scale(1.64 .03) skewX(-.03)" xlink:href="#radial-gradient-3"/>
  </defs>
  <g class="cls-1">
    <g id="Layer_2" data-name="Layer 2">
      <g id="Layer_1-2" data-name="Layer 1">
        <g>
          <g>
            <g>
              <path class="cls-3" d="m453.33,447.82l-1.3-36h0l-.49-13.88h-14.69l-1.22,2.15s-.02.02-.02.04l-6.4,11.32-.07.12h0l-19.98,35.33-7.96,13.62h15.39l6.36-12.69h14.68l-.14,10.41c0,.17,0,.32.02.47l-.02,1.81h16.38l-.53-12.69Zm-15.14-22.76l-.41,13.22h-9.75l6.67-13.22,3.7-7.53h.12l-.33,7.53Z"/>
              <path class="cls-3" d="m407.79,397.93h-12.28l-6.97,25.99h-15.98l6.36-23.72c.08-.31.12-.57.13-.81l.39-1.47h-15.43l-.58,2.16s-.03.07-.04.12l-4.86,18.13-11.32,42.17h15.51l.45-1.69c.07-.18.13-.37.19-.58l6.64-24.77h15.98l-7.26,27.04h15.51l16.72-62.58h-3.15Z"/>
              <path class="cls-3" d="m852.66,397.93h-12.28l-6.97,25.99h-15.98l6.36-23.72c.08-.31.12-.57.13-.81l.39-1.46h-15.43l-.58,2.17s-.02.07-.03.1l-4.35,16.22-11.83,44.08h15.51l.45-1.68c.07-.18.14-.38.19-.6l6.64-24.77h15.98l-7.26,27.04h15.51l16.72-62.58h-3.15Z"/>
              <path class="cls-3" d="m534.68,397.93h-13.85l-1.59,2.13-20.7,27.02-.96-4.38-5.05-24.76h-14.89l-6.62,24.77h.05l-9.52,35.53c-.03.1-.04.19-.06.28l-.53,1.99h15.01l5.03-19.17,3.63-13.56h.12l4.03,19.08c.4,1.66,1.02,2.01,3.31,2.01h.24c2.29,0,3.1-.35,4.39-2.01l14.98-19.08h.12l-2.14,7.97-6.76,24.76h15.01l4.19-15.97,5.86-21.85,6.69-24.76Z"/>
              <path class="cls-3" d="m740.76,397.93h-14.92l-.6,2.22s-.01.03-.02.05l-8.11,30.28h-.12l-8.93-28.9-1.11-3.65h-12.64l-.6,2.23s-.01.03-.02.05l-1.4,5.23-.1.39h0l-11.71,43.72-2.94,10.97h14.95l3.31-12.46,5.81-21.67h.12l10.31,32.03c.52,1.66,1.24,2.1,3.77,2.1h5.05c2.41,0,3.27-.52,3.74-2.28l14.06-52.46,2.11-7.84Z"/>
            </g>
            <path class="cls-3" d="m578.43,397.93h-29.61l-6.62,24.77h.11l-8.08,30.16-2.27,7.65h15.69l.41-1.57c.09-.21.18-.44.25-.71l5.93-22.14h13.96c10.59,0,15.3-4.55,16.84-10.33l4.67-17.42c1.55-5.78-.7-10.41-11.29-10.41Zm-4.8,12.51l-3.49,13.04c-.42,1.58-2.46,2.89-4.38,2.89h-8.9l4.24-15.84-8.14-2.98h17.84c1.93,0,3.26,1.31,2.84,2.89Z"/>
            <path class="cls-3" d="m338.36,397.93h-16.12c-10.59,0-15.32,4.64-16.87,10.41l-11.19,41.75c-1.55,5.78.7,10.41,11.29,10.41h16.12c10.47,0,15.2-4.64,16.75-10.41l.37-1.38h.07l.99-3.95.75-2.81c.08-.3.12-.55.15-.79l.89-3.55h-14.87l-2.94,11.1h.04l-.58,2.17h-13.84l10.73-40.03-9-3.29h23.72l-2.53,9.45c-.04.16-.07.31-.09.45l-.45,1.71h15.03l1.98-7.92.78-2.9c1.55-5.78-.7-10.41-11.17-10.41Z"/>
            <path class="cls-3" d="m666.51,397.93h-19.97c-10.59,0-15.32,4.64-16.87,10.41l-11.19,41.75c-1.55,5.78.7,10.41,11.29,10.41h19.97c10.59,0,15.32-4.64,16.87-10.41l11.18-41.75c1.55-5.78-.7-10.41-11.29-10.41Zm-15.63,52.95h-17.21l10.84-40.46-7.82-2.86h25.79l-11.61,43.32Z"/>
            <path class="cls-3" d="m929.19,397.93h-29.5l-6.05,22.64-9.75,36.37-1.06,3.56h15.69l2.98-11.37,3.5-13.05h13.96c10.59,0,15.3-4.55,16.85-10.33l4.67-17.42c1.55-5.78-.7-10.41-11.29-10.41Zm-4.8,12.51l-3.49,13.04c-.42,1.58-2.46,2.89-4.38,2.89h-8.91l4.23-15.78-8.3-3.04h18.02c1.93,0,3.26,1.31,2.84,2.89Z"/>
            <path class="cls-3" d="m782.15,397.93h-14.92c-10.59,0-15.32,4.64-16.87,10.41l-3.96,14.79c-1.62,6.04,1.03,10.06,11.26,10.5l8.57.35c4.04.17,5.04.96,4.24,3.94l-2.7,10.06c-.42,1.58-2.46,2.89-4.38,2.89h-7.46c-1.67,0-2.88-.98-2.91-2.27l2.61-10.4h-14.87l-2.94,11.1h0l-.21.78c-1.55,5.78.7,10.41,11.29,10.41h16.97c10.59,0,15.32-4.64,16.87-10.41l4.22-15.75c1.62-6.04-1.01-10.15-11.24-10.59l-8.57-.35c-3.95-.09-5.11-1.14-4.31-4.11l2.37-8.84c.02-.08.06-.15.09-.22l-7.29-2.67h10.75l-.06.12c.34-.07.68-.12,1.02-.12h5.29c1.77,0,3.02,1.11,2.89,2.51l-1.81,6.84h15.03l1.19-4.4c.08-.2.15-.42.22-.67l.94-3.5c.08-.29.14-.57.2-.86v-.04s0,0,0,0c1.08-5.35-1.46-9.52-11.5-9.52Z"/>
            <path class="cls-3" d="m981.06,397.93h-14.92c-10.59,0-15.32,4.64-16.87,10.41l-3.96,14.79c-1.62,6.04,1.03,10.06,11.26,10.5l8.57.35c4.04.17,5.04.96,4.24,3.94l-2.7,10.06c-.42,1.58-2.46,2.89-4.38,2.89h-7.46c-1.66,0-2.88-.98-2.91-2.26l2.61-10.41h-14.87l-2.69,10.17-.46,1.72c-1.55,5.78.7,10.41,11.29,10.41h16.97c10.59,0,15.32-4.64,16.87-10.41l4.22-15.75c1.62-6.04-1.01-10.15-11.24-10.59l-8.57-.35c-3.95-.09-5.11-1.14-4.31-4.11l2.37-8.84c.05-.17.12-.33.2-.5l-6.54-2.39h10.75,0s.06,0,.09,0h5.29c1.71,0,2.95,1.04,2.91,2.37l-1.85,6.98h15.03l1.28-4.63c.05-.14.1-.28.14-.44l.94-3.5c1.55-5.78-.7-10.41-11.29-10.41Z"/>
            <polygon class="cls-3" points="586.33 460.5 603.1 397.93 618.65 397.93 601.86 460.5 586.33 460.5"/>
            <polygon class="cls-3" points="853.23 460.51 869.99 397.93 885.54 397.93 868.75 460.51 853.23 460.51"/>
          </g>
          <path class="cls-7" d="m600.1,360.69c-.01,4.22-134.36,10.26-300.07,13.51C134.32,377.44-.01,376.66,0,372.44c0-4.23,134.36-10.27,300.07-13.53,165.71-3.24,300.04-2.45,300.03,1.77Z"/>
          <path class="cls-6" d="m1226.18,12.55c-.15,4.22-134.62,5.86-300.35,3.68-165.73-2.18-299.96-7.36-299.81-11.57.15-4.22,134.62-5.87,300.35-3.7,165.73,2.19,299.96,7.37,299.81,11.59Z"/>
          <path class="cls-4" d="m99.53,361.64c.16-10.76,423.17-22.45,944.81-26.14"/>
          <path class="cls-5" d="m404.24,35.09c.39-10.75,423.55-13.48,945.15-6.12"/>
          <polygon class="cls-2" points="1027.42 44.38 956.44 44.38 873.82 124.78 845.69 88.95 777.62 88.95 777.62 88.95 761.22 88.95 761.46 89.17 669.1 89.17 669.1 89.17 617.82 89.17 641.97 111.05 571.94 307.73 628.71 307.73 666.24 204.99 650.65 190.87 687.08 190.87 687.08 190.87 767.29 190.87 779.14 156.58 682.98 156.58 686.7 145.81 669.35 130.1 692.14 130.1 692.16 130.04 802.22 130.04 802.24 130 826.88 160.16 718.83 258.81 789.23 258.81 854.63 194.45 934.54 307.96 1005.61 307.96 902.81 157.88 1027.42 44.38"/>
          <path class="cls-2" d="m617,100.33c-6.54-7.43-16.47-11.16-29.79-11.16h-202.99l46.78,38.52-8.93,26.31c-3.87,10.8-2.49,19.93,4.15,27.36,6.63,7.44,16.61,11.16,29.94,11.16h82.26c2.51,0,3.37,1.02,2.57,3.05l-6.5,18.79c-.61,2.04-2.16,3.05-4.67,3.05h-69.23c-2.51,0-3.47-1.02-2.86-3.05l3.5-9.63h-56.77l-5.15,15.03c-3.87,10.8-2.49,19.93,4.15,27.36,6.63,7.44,16.61,11.16,29.94,11.16h102.54c13.32,0,24.63-3.72,33.93-11.16,9.29-7.44,15.88-16.56,19.75-27.36l8.93-26.31c3.87-10.8,2.49-19.92-4.15-27.36-6.64-7.44-16.61-11.16-29.94-11.16h-82.26c-2.51,0-3.46-1.02-2.86-3.05l2.04-5.88-17.56-15.9h26.48c.17-.01.32-.06.5-.06h69.23c2.51,0,3.37,1.02,2.57,3.05l-3.21,9.63h56.77l5.14-15.03c3.68-10.8,2.25-19.92-4.29-27.36Z"/>
          <polygon class="cls-3" points="648.4 296.96 644.38 307.96 916.43 307.96 908.69 296.96 648.4 296.96"/>
          <polygon class="cls-3" points="1006.26 83.67 966.57 224.76 974.66 236.58 1021.62 69.68 1006.26 83.67"/>
          <path class="cls-3" d="m395.27,49.9l-7.85,27.89h11.42l6.31-22.41h518.76l11.3-11H401.97c-2.84,0-5.84,2.47-6.7,5.52Z"/>
          <path class="cls-3" d="m324.21,302.44c-.86,3.05.75,5.52,3.59,5.52h228.34l3.92-11h-222.88l52.95-188.18-9.27-7.64-56.64,201.29Z"/>
          <g>
            <g>
              <path class="cls-2" d="m770.08,355.23l-7.11-15.01h12.23l3.32,8.65,8.86-8.65h12.75l-17.51,15.26,6.95,15.26h-12.13l-3.48-8.69-8.91,8.69h-12.65l17.68-15.51Z"/>
              <path class="cls-2" d="m878.6,342.26c-1.18-1.36-2.98-2.03-5.38-2.03h-26.14l-10.56,30.52h10.25l3.45-10h4.97l5.34,10h11.76l-6.33-10h.21c2.96,0,5.36-.68,7.19-2.06,1.83-1.37,3.08-3,3.75-4.9l2.27-6.61c.67-1.92.41-3.56-.77-4.92Zm-9.82,5.89l-1.72,5c-.11.37-.39.55-.84.55h-13.54l1.03-3-3.41-3.09h4.48s13.54-.01,13.54-.01c.45,0,.61.18.46.55Z"/>
              <polygon class="cls-2" points="804.49 340.22 801.94 347.6 814.59 347.6 806.58 370.74 816.82 370.74 823.69 350.89 820.07 347.61 824.83 347.61 824.83 347.6 837.48 347.6 840.04 340.22 804.49 340.22"/>
              <path class="cls-2" d="m925.9,340.22h8.68l5.42,17.8,16.8-17.8h9.72l-10.56,30.52h-10.25l4.21-12.17-9.14,8.86h-8.05l-2.98-8.82-4.17,12.12h-10.25l10.56-30.52Z"/>
              <path class="cls-2" d="m919.93,340.22h-27.83c-2.1,0-3.96,1.24-4.59,3.05l-7.55,21.82c-.97,2.8,1.34,5.65,4.59,5.65h24.82l2.56-7.38h-21.12l.86-2.49-2.54-2.3h6.57,0s15.53,0,15.53,0l2.14-6.19h-18.77l.62-1.8-3.29-2.98h4.32s21.12-.01,21.12-.01l2.56-7.38Z"/>
              <path class="cls-2" d="m1004.52,340.22h-27.83c-2.1,0-3.96,1.24-4.59,3.05l-7.55,21.82c-.97,2.8,1.34,5.65,4.59,5.65h24.82l2.56-7.38h-21.12l.86-2.49-2.54-2.3h6.57,0s15.53,0,15.53,0l2.14-6.19h-18.77l.62-1.8-3.29-2.98h4.32s21.12-.01,21.12-.01l2.56-7.38Z"/>
            </g>
            <path class="cls-2" d="m435.37,342.26c-1.18-1.36-2.98-2.03-5.38-2.03h-26.14l-10.56,30.52h10.25l3.45-10h4.97l5.34,10h11.76l-6.33-10h.21c2.96,0,5.36-.68,7.19-2.06,1.83-1.37,3.08-3,3.75-4.9l2.27-6.61c.67-1.92.41-3.56-.77-4.92Zm-9.82,5.89l-1.72,5c-.11.37-.39.55-.84.55h-13.54l1.03-3-3.41-3.09h4.48s13.54-.01,13.54-.01c.45,0,.61.18.46.55Z"/>
            <polygon class="cls-2" points="361.24 340.22 358.68 347.6 371.33 347.6 363.32 370.74 373.57 370.74 380.44 350.89 376.82 347.61 381.57 347.61 381.58 347.6 394.23 347.6 396.78 340.22 361.24 340.22"/>
            <path class="cls-2" d="m353.2,342.24c-1.18-1.34-2.97-2.01-5.38-2.01h-18.24c-2.4,0-4.5.67-6.28,2.01-1.78,1.34-3.01,2.99-3.67,4.94l-1.61,4.75c-.7,1.95-.45,3.6.75,4.94,1.2,1.34,3,2.01,5.4,2.01h14.85c.45,0,.61.18.46.55l-1.17,3.39c-.11.37-.39.55-.84.55h-12.49c-.45,0-.63-.18-.52-.55l.63-1.74h-10.25l-.93,2.71c-.7,1.95-.45,3.6.75,4.94,1.2,1.34,3,2.01,5.4,2.01h18.5c2.4,0,4.45-.67,6.12-2.01,1.68-1.34,2.87-2.99,3.56-4.94l1.61-4.75c.7-1.95.45-3.6-.75-4.94-1.2-1.34-3-2.01-5.4-2.01h-14.85c-.45,0-.63-.18-.52-.55l.37-1.06-3.17-2.87h4.78s.06-.01.09-.01h12.49c.45,0,.61.18.46.55l-.58,1.74h10.25l.93-2.71c.66-1.95.41-3.6-.77-4.94Z"/>
            <path class="cls-2" d="m445.96,340.22h10.25l-10.56,30.52h-10.25l10.56-30.52Z"/>
            <path class="cls-2" d="m454.11,370.74l10.56-30.52h10.25l-2.79,8.1,12.05-8.1h12.18l-16.6,10.98,6.98,19.54h-11.71l-4.4-13.56-2.06,1.36-4.2,12.21h-10.25Z"/>
            <path class="cls-2" d="m533.3,340.22h-27.83c-2.1,0-3.96,1.24-4.59,3.05l-7.55,21.82c-.97,2.8,1.34,5.65,4.59,5.65h24.82l2.56-7.38h-21.12l.86-2.49-2.54-2.3h6.57,0s15.53,0,15.53,0l2.14-6.19h-18.77l.62-1.8-3.29-2.98h4.32s21.12-.01,21.12-.01l2.56-7.38Z"/>
            <g>
              <polygon class="cls-2" points="704 340.22 701.45 347.6 714.1 347.6 706.09 370.74 716.33 370.74 723.2 350.89 719.58 347.61 724.34 347.61 724.34 347.6 736.99 347.6 739.55 340.22 704 340.22"/>
              <path class="cls-2" d="m598.48,340.22h10.25l-10.56,30.52h-10.25l10.56-30.52Z"/>
              <path class="cls-2" d="m652.73,340.22h-27.53c-2.23,0-4.27.64-6.11,1.93-1.84,1.29-3.12,2.96-3.84,5.02l-6.72,19.5c-.39,1.13-.24,2.09.46,2.88.7.79,1.74,1.19,3.14,1.19h23.89c4.32,0,7.29-2.32,8.9-6.95l4.1-11.91h-19.29l-.89,2.55c-.62,1.78.85,3.6,2.91,3.6h4.98l-1.66,4.79c-.11.37-.42.55-.95.55h-13.8c-.28,0-.39-.11-.32-.34l4.29-12.4-3.33-3.02h4.99s.06-.01.09-.01h24.13l2.56-7.38Z"/>
              <polygon class="cls-2" points="686.75 340.22 682.77 351.67 667.67 351.67 671.64 340.22 661.39 340.22 650.83 370.74 661.08 370.74 664.13 361.9 660.98 359.05 665.11 359.05 665.11 359.04 680.22 359.04 676.18 370.74 686.43 370.74 696.99 340.22 686.75 340.22"/>
              <path class="cls-2" d="m591.4,340.22h-26.58c-2.1,0-3.96,1.24-4.59,3.05l-9.51,27.47h10.25l3.33-9.62-2.81-2.55h6.57,0s14.48,0,14.48,0l2.14-6.19h-17.35l.67-1.94-3.13-2.84h4.12s19.86-.01,19.86-.01l2.56-7.38Z"/>
            </g>
          </g>
        </g>
      </g>
    </g>
  </g>
</svg>